{"title":"Publieke Werken Dutch movie w English subs 2015","uid":15475295,"size":839942363,"categoryP":"video","categoryS":"movies","magnet":"?xt=urn:btih:b37ca48501cdffeb072bbaa9ce405798d21dd291&amp;dn=Publieke+Werken+Dutch+movie+w+English+subs+2015&amp;tr=udp%3A%2F%2Ftracker.leechers-paradise.org%3A6969&amp;tr=udp%3A%2F%2Fzer0day.ch%3A1337&amp;tr=udp%3A%2F%2Fopen.demonii.com%3A1337&amp;tr=udp%3A%2F%2Ftracker.coppersurfer.tk%3A6969&amp;tr=udp%3A%2F%2Fexodus.desync.com%3A6969","seeders":17,"leechers":3,"uploader":null,"files":4,"time":1470182294,"description":"Publieke Werken (2015)\r\n\r\nDutch spoken movie (2015) with separate english (srt) subtitles\r\nRip from original DVD\r\n\r\nStoryline\r\n\r\n1888: a luthier, Vedder (Gijs Scholten van Aschat), has to step aside when his home, opposite the recently completed Central Station in Amsterdam, must yield for the planned Victoria Hotel. His cousin Anijs (Jacob Derwig), pharmacist in the Northern provinces of the Netherlands, has gotten into a fix after illegal medical practices, and is looking for a way out. For himself and his wife Martha (Rifka Lodeizen), but also for a colony of poor peat cutters whom he promises a future in the United States. Committed - or is it pride? - the two of them think up a scheme from which they all will fully benefit. With tragic consequences. \r\n\r\nTechnical data\r\n\r\nFormat                                   : AVI\r\nFormat/Info                              : Audio Video Interleave\r\nFile size                                : 800 MiB\r\nDuration                                 : 1h 46mn\r\nOverall bit rate                         : 1 053 Kbps\r\nMovie name                               : Publieke Werken dvd 5.Title1.DVDRip\r\nWriting application                      : Lavf52.78.4\r\nOriginal source form/Name                : Publieke Werken dvd 5\r\n\r\nVideo\r\nID                                       : 0\r\nFormat                                   : AVC\r\nFormat/Info                              : Advanced Video Codec\r\nFormat profile                           :   \r\nFormat settings, CABAC                   : Yes\r\nFormat settings, ReFrames                : 2 frames\r\nCodec ID                                 : H264\r\nDuration                                 : 1h 46mn\r\nBit rate                                 : 913 Kbps\r\nWidth                                    : 720 pixels\r\nHeight                                   : 300 pixels\r\nDisplay aspect ratio                     : 2.40:1\r\nFrame rate                               : 25.000 fps\r\nColor space                              : YUV\r\nChroma subsampling                       : 4:2:0\r\nBit depth                                : 8 bits\r\nScan type                                : Progressive\r\nBits/(Pixel*Frame)                       : 0.169\r\nStream size                              : 693 MiB (87%)\r\nWriting library                          : x264 core\r\nColor primaries                          : BT.601 NTSC\r\nTransfer characteristics                 : BT.709\r\nMatrix coefficients                      : BT.601\r\n\r\nAudio\r\nID                                       : 1\r\nFormat                                   : MPEG Audio\r\nFormat version                           : Version 1\r\nFormat profile                           : Layer 3\r\nMode                                     : Joint stereo\r\nCodec ID                                 : 55\r\nCodec ID/Hint                            : MP3\r\nDuration                                 : 1h 46mn\r\nBit rate mode                            : Constant\r\nBit rate                                 : 128 Kbps\r\nChannel(s)                               : 2 channels\r\nSampling rate                            : 48.0 KHz\r\nCompression mode                         : Lossy\r\nStream size                              : 97.2 MiB (12%)\r\nAlignment                                : Aligned on interleaves\r\nInterleave, duration                     : 24 ms (0.60 video frame)\r\nInterleave, preload duration             : 24 ms\r\nWriting library                          : LAME3.98.4","torrent":{"xt":"urn:btih:b37ca48501cdffeb072bbaa9ce405798d21dd291","amp;dn":"Publieke+Werken+Dutch+movie+w+English+subs+2015","amp;tr":["udp%3A%2F%2Ftracker.leechers-paradise.org%3A6969","udp%3A%2F%2Fzer0day.ch%3A1337","udp%3A%2F%2Fopen.demonii.com%3A1337","udp%3A%2F%2Ftracker.coppersurfer.tk%3A6969","udp%3A%2F%2Fexodus.desync.com%3A6969"],"infoHash":"b37ca48501cdffeb072bbaa9ce405798d21dd291","infoHashBuffer":{"type":"Buffer","data":[179,124,164,133,1,205,255,235,7,43,186,169,206,64,87,152,210,29,210,145]},"announce":[],"urlList":[]}}